<?xml version="1.0" encoding="iso-8859-1"?>
<!-- Generator: Adobe Illustrator 19.0.0, SVG Export Plug-In . SVG Version: 6.00 Build 0)  -->
<svg version="1.1" id="Capa_1" xmlns="http://www.w3.org/2000/svg" xmlns:xlink="http://www.w3.org/1999/xlink" x="0px" y="0px"
	 viewBox="0 0 512 512" style="enable-background:new 0 0 512 512;" xml:space="preserve">
<path style="fill:#E4EEF0;" d="M373.197,503.467H138.803c-15.394,0-27.87-12.476-27.87-27.87V435.2h290.133v40.397
	C401.067,490.991,388.591,503.467,373.197,503.467z"/>
<g>
	<path style="fill:#ADB9C3;" d="M281.6,477.867h-51.2c-4.71,0-8.533-3.823-8.533-8.533c0-4.71,3.823-8.533,8.533-8.533h51.2
		c4.71,0,8.533,3.823,8.533,8.533C290.133,474.044,286.31,477.867,281.6,477.867z"/>
	<path style="fill:#ADB9C3;" d="M358.4,477.867h-34.133c-4.71,0-8.533-3.823-8.533-8.533c0-4.71,3.823-8.533,8.533-8.533H358.4
		c4.71,0,8.533,3.823,8.533,8.533C366.933,474.044,363.11,477.867,358.4,477.867z"/>
	<path style="fill:#ADB9C3;" d="M187.733,477.867H153.6c-4.71,0-8.533-3.823-8.533-8.533c0-4.71,3.823-8.533,8.533-8.533h34.133
		c4.71,0,8.533,3.823,8.533,8.533C196.267,474.044,192.444,477.867,187.733,477.867z"/>
</g>
<path style="fill:#E4EEF0;" d="M138.803,8.533h234.402c15.386,0,27.861,12.476,27.861,27.87V76.8H110.933V36.403
	C110.933,21.009,123.409,8.533,138.803,8.533z"/>
<path style="fill:#ADB9C3;" d="M298.667,51.2h-85.333c-4.71,0-8.533-3.823-8.533-8.533s3.823-8.533,8.533-8.533h85.333
	c4.71,0,8.533,3.823,8.533,8.533S303.377,51.2,298.667,51.2z"/>
<rect x="110.933" y="76.8" style="fill:#082C56;" width="290.133" height="358.4"/>
<rect x="273.067" y="110.933" style="fill:#E10D00;" width="93.867" height="128"/>
<rect x="273.067" y="273.067" style="fill:#EEBE00;" width="93.867" height="128"/>
<rect x="145.067" y="110.933" style="fill:#3755C7;" width="93.867" height="59.733"/>
<rect x="145.067" y="341.333" style="fill:#F80400;" width="93.867" height="59.733"/>
<rect x="145.067" y="204.8" style="fill:#00B789;" width="93.867" height="102.4"/>
<g>
	<path style="fill:#4D007E;" d="M373.197,512H138.803c-20.07,0-36.403-16.324-36.403-36.403V435.2c0-4.719,3.823-8.533,8.533-8.533
		h290.133c4.719,0,8.533,3.814,8.533,8.533v40.397C409.6,495.676,393.276,512,373.197,512z M119.467,443.733v31.863
		c0,10.658,8.678,19.337,19.337,19.337h234.394c10.658,0,19.337-8.678,19.337-19.337v-31.863H119.467z"/>
	<path style="fill:#4D007E;" d="M281.6,477.867h-51.2c-4.71,0-8.533-3.814-8.533-8.533c0-4.719,3.823-8.533,8.533-8.533h51.2
		c4.719,0,8.533,3.814,8.533,8.533C290.133,474.052,286.319,477.867,281.6,477.867z"/>
	<path style="fill:#4D007E;" d="M358.4,477.867h-34.133c-4.719,0-8.533-3.814-8.533-8.533c0-4.719,3.814-8.533,8.533-8.533H358.4
		c4.719,0,8.533,3.814,8.533,8.533C366.933,474.052,363.119,477.867,358.4,477.867z"/>
	<path style="fill:#4D007E;" d="M187.733,477.867H153.6c-4.71,0-8.533-3.814-8.533-8.533c0-4.719,3.823-8.533,8.533-8.533h34.133
		c4.71,0,8.533,3.814,8.533,8.533C196.267,474.052,192.444,477.867,187.733,477.867z"/>
	<path style="fill:#4D007E;" d="M401.067,85.333H110.933c-4.71,0-8.533-3.823-8.533-8.533V36.403C102.4,16.333,118.733,0,138.803,0
		h234.402c20.07,0,36.395,16.333,36.395,36.403V76.8C409.6,81.51,405.786,85.333,401.067,85.333z M119.467,68.267h273.067V36.403
		c0-10.658-8.67-19.337-19.328-19.337H138.803c-10.658,0-19.337,8.678-19.337,19.337V68.267z"/>
	<path style="fill:#4D007E;" d="M298.667,51.2h-85.333c-4.71,0-8.533-3.823-8.533-8.533s3.823-8.533,8.533-8.533h85.333
		c4.719,0,8.533,3.823,8.533,8.533S303.386,51.2,298.667,51.2z"/>
	<path style="fill:#4D007E;" d="M401.067,443.733H110.933c-4.71,0-8.533-3.814-8.533-8.533V76.8c0-4.71,3.823-8.533,8.533-8.533
		h290.133c4.719,0,8.533,3.823,8.533,8.533v358.4C409.6,439.919,405.786,443.733,401.067,443.733z M119.467,426.667h273.067V85.333
		H119.467V426.667z"/>
	<path style="fill:#4D007E;" d="M443.674,324.454c-0.794,0-1.596-0.111-2.389-0.341c-4.523-1.314-7.117-6.059-5.803-10.581
		c5.436-18.628,8.192-37.982,8.192-57.532c0-19.507-2.731-38.801-8.132-57.353c-1.314-4.523,1.28-9.259,5.811-10.573
		c4.514-1.331,9.259,1.289,10.573,5.811c5.854,20.096,8.815,40.994,8.815,62.114c0,21.171-2.987,42.138-8.875,62.319
		C450.782,322.039,447.377,324.454,443.674,324.454z"/>
	<path style="fill:#4D007E;" d="M68.318,324.454c-3.695,0-7.1-2.415-8.183-6.144c-5.888-20.164-8.875-41.131-8.875-62.319
		c0-21.111,2.97-42.001,8.815-62.114c1.314-4.523,6.05-7.134,10.581-5.811c4.523,1.314,7.125,6.05,5.811,10.581
		c-5.402,18.569-8.141,37.862-8.141,57.353c0,19.567,2.756,38.929,8.192,57.532c1.323,4.523-1.271,9.259-5.803,10.581
		C69.922,324.352,69.111,324.454,68.318,324.454z"/>
	<path style="fill:#4D007E;" d="M25.6,358.4c-3.26,0-6.383-1.886-7.799-5.052C6.323,327.637,0,293.069,0,256
		s6.323-71.637,17.809-97.348c1.911-4.309,6.955-6.246,11.273-4.309c4.301,1.92,6.229,6.972,4.309,11.273
		C22.861,189.184,17.067,221.278,17.067,256c0,34.714,5.794,66.816,16.324,90.385c1.92,4.309-0.009,9.353-4.309,11.273
		C27.947,358.17,26.769,358.4,25.6,358.4z"/>
	<path style="fill:#4D007E;" d="M486.392,358.4c-1.161,0-2.338-0.23-3.465-0.742c-4.309-1.929-6.238-6.963-4.318-11.264
		c10.522-23.586,16.324-55.689,16.324-90.394s-5.803-66.807-16.324-90.385c-1.929-4.301,0.009-9.353,4.318-11.273
		c4.292-1.929,9.353,0.009,11.264,4.309C505.677,184.371,512,218.948,512,256c0,37.06-6.323,71.629-17.809,97.34
		C492.774,356.514,489.66,358.4,486.392,358.4z"/>
	<path style="fill:#4D007E;" d="M366.933,247.467h-93.867c-4.719,0-8.533-3.823-8.533-8.533v-128c0-4.71,3.814-8.533,8.533-8.533
		h93.867c4.719,0,8.533,3.823,8.533,8.533v128C375.467,243.644,371.652,247.467,366.933,247.467z M281.6,230.4h76.8V119.467h-76.8
		V230.4z"/>
	<path style="fill:#4D007E;" d="M366.933,409.6h-93.867c-4.719,0-8.533-3.814-8.533-8.533v-128c0-4.719,3.814-8.533,8.533-8.533
		h93.867c4.719,0,8.533,3.814,8.533,8.533v128C375.467,405.786,371.652,409.6,366.933,409.6z M281.6,392.533h76.8V281.6h-76.8
		V392.533z"/>
	<path style="fill:#4D007E;" d="M238.933,179.2h-93.867c-4.71,0-8.533-3.823-8.533-8.533v-59.733c0-4.71,3.823-8.533,8.533-8.533
		h93.867c4.71,0,8.533,3.823,8.533,8.533v59.733C247.467,175.377,243.644,179.2,238.933,179.2z M153.6,162.133h76.8v-42.667h-76.8
		V162.133z"/>
	<path style="fill:#4D007E;" d="M238.933,409.6h-93.867c-4.71,0-8.533-3.814-8.533-8.533v-59.733c0-4.719,3.823-8.533,8.533-8.533
		h93.867c4.71,0,8.533,3.814,8.533,8.533v59.733C247.467,405.786,243.644,409.6,238.933,409.6z M153.6,392.533h76.8v-42.667h-76.8
		V392.533z"/>
	<path style="fill:#4D007E;" d="M238.933,315.733h-93.867c-4.71,0-8.533-3.814-8.533-8.533V204.8c0-4.71,3.823-8.533,8.533-8.533
		h93.867c4.71,0,8.533,3.823,8.533,8.533v102.4C247.467,311.919,243.644,315.733,238.933,315.733z M153.6,298.667h76.8v-85.333
		h-76.8V298.667z"/>
</g>
<g>
</g>
<g>
</g>
<g>
</g>
<g>
</g>
<g>
</g>
<g>
</g>
<g>
</g>
<g>
</g>
<g>
</g>
<g>
</g>
<g>
</g>
<g>
</g>
<g>
</g>
<g>
</g>
<g>
</g>
</svg>
